<svg width="220" height="24" viewBox="0 0 220 24" fill="none" xmlns="http://www.w3.org/2000/svg">
<g filter="url(#filter0_d_337_814)">
<path d="M20.1137 15.016H15.0897V14.44L16.5937 13.256V4.648L12.3857 15.016H11.3937L7.20175 4.536V13.48L8.89775 14.296L8.54575 15.016H4.72175V14.44L6.22575 13.256V4.008L4.52975 3.144L4.89775 2.424H8.57775L12.4977 12.232L16.4177 2.424H20.2897V3L18.7697 4.184V13.736L20.4657 14.296L20.1137 15.016ZM31.2156 15H28.0476V13.608L26.2396 15.032C26.0263 15.1173 25.7596 15.16 25.4396 15.16C24.501 15.16 23.8236 14.9307 23.4076 14.472C22.9916 14.0027 22.7836 13.4373 22.7836 12.776C22.7836 12.392 22.917 12.0133 23.1836 11.64C23.4503 11.256 23.8396 10.8933 24.3516 10.552H28.0476V9.688C28.0476 8.44 27.381 7.816 26.0476 7.816C25.3756 7.816 24.533 8.19467 23.5196 8.952L23.0396 8.28L25.3276 6.472C25.8183 6.36533 26.3516 6.312 26.9276 6.312C27.941 6.312 28.725 6.55733 29.2796 7.048C29.845 7.53867 30.1276 8.248 30.1276 9.176V13.72L31.5676 14.28L31.2156 15ZM26.0156 13.64C26.645 13.64 27.3223 13.3573 28.0476 12.792V11.288H25.2636C25.1356 11.448 25.045 11.608 24.9916 11.768C24.9383 11.928 24.9116 12.104 24.9116 12.296C24.9116 12.6693 25.013 12.9893 25.2156 13.256C25.4183 13.512 25.685 13.64 26.0156 13.64ZM38.4617 8.12C38.2377 8.12 38.0031 8.17867 37.7577 8.296C37.5124 8.41333 37.2351 8.62667 36.9257 8.936V13.624L39.1977 14.296L38.8457 15.016H33.4217V14.44L34.8457 13.304V8.952L33.4217 8.104V7.528L36.2697 6.168L36.7977 8.104L38.4137 6.44C38.6591 6.35467 38.9471 6.312 39.2777 6.312C39.6724 6.312 40.0137 6.41333 40.3017 6.616C40.6004 6.81867 40.8244 7.10667 40.9737 7.48L39.8217 8.92H39.1337C39.0911 8.632 39.0164 8.42933 38.9097 8.312C38.8031 8.184 38.6537 8.12 38.4617 8.12ZM47.2996 6.312C47.7476 6.312 48.2703 6.376 48.8676 6.504C49.465 6.62133 49.897 6.75467 50.1636 6.904V9.48H49.4756C49.0596 8.94667 48.585 8.53067 48.0516 8.232C47.5183 7.92267 46.9636 7.768 46.3876 7.768C45.9183 7.768 45.561 7.98133 45.3156 8.408C45.081 8.824 44.9636 9.43733 44.9636 10.248C44.9636 11.2293 45.1716 12.0453 45.5876 12.696C46.0143 13.3467 46.6223 13.672 47.4116 13.672C48.0303 13.672 48.921 13.256 50.0836 12.424L50.5636 13.096L48.1316 15.016C47.673 15.112 47.1236 15.16 46.4836 15.16C45.769 15.16 45.1236 14.9787 44.5476 14.616C43.9823 14.2427 43.5343 13.7413 43.2036 13.112C42.8836 12.4827 42.7236 11.784 42.7236 11.016C42.7236 10.184 42.9583 9.41067 43.4276 8.696C43.9076 7.97067 44.505 7.39467 45.2196 6.968C45.9343 6.53067 46.6276 6.312 47.2996 6.312ZM58.6782 15.016C58.2196 15.112 57.6649 15.16 57.0142 15.16C56.2996 15.16 55.6542 14.9787 55.0782 14.616C54.5129 14.2427 54.0649 13.7413 53.7342 13.112C53.4142 12.4827 53.2542 11.784 53.2542 11.016C53.2542 10.184 53.5049 9.41067 54.0062 8.696C54.5182 7.97067 55.1582 7.39467 55.9262 6.968C56.6942 6.53067 57.4356 6.312 58.1502 6.312C59.1849 6.312 59.9849 6.71733 60.5502 7.528C61.1262 8.33867 61.4089 9.42133 61.3982 10.776H55.5102C55.5849 11.6293 55.8302 12.328 56.2462 12.872C56.6622 13.4053 57.2276 13.672 57.9422 13.672C58.6462 13.672 59.6489 13.1707 60.9502 12.168L61.4302 12.824L58.6782 15.016ZM57.2382 7.768C56.1396 7.768 55.5636 8.52533 55.5102 10.04H59.1102C59.0142 9.496 58.9129 9.07467 58.8062 8.776C58.7102 8.47733 58.5396 8.23733 58.2942 8.056C58.0489 7.864 57.6916 7.768 57.2222 7.768H57.2382ZM68.254 15.016H63.678V14.44L65.102 13.304V3.672L63.678 2.68V2.104L66.494 1.032H67.182V13.752L68.622 14.296L68.254 15.016ZM142.378 14.984H137.354V14.408L138.858 13.224V3.688L137.162 3.144L137.53 2.424H142.554V3L141.034 4.2V13.72L142.73 14.264L142.378 14.984ZM154.977 15.016H151.825V9.672C151.825 9.10667 151.734 8.712 151.553 8.488C151.372 8.25333 151.057 8.136 150.609 8.136C150.278 8.136 149.948 8.19467 149.617 8.312C149.286 8.42933 148.902 8.65333 148.465 8.984V13.768L149.905 14.296L149.537 15.016H144.961V14.44L146.385 13.304V8.952L144.961 8.104V7.528L147.809 6.168L148.369 8.2L150.577 6.44C150.822 6.35467 151.121 6.312 151.473 6.312C152.22 6.312 152.812 6.536 153.249 6.984C153.686 7.42133 153.905 8.01867 153.905 8.776V13.752L155.345 14.296L154.977 15.016ZM163.003 0.872C163.313 0.872 163.665 0.904 164.059 0.967999C164.465 1.032 164.758 1.10133 164.939 1.176V3.72H164.251C163.985 3.28267 163.659 2.94133 163.275 2.696C162.891 2.44 162.502 2.312 162.107 2.312C161.638 2.312 161.281 2.52 161.035 2.936C160.801 3.352 160.683 3.96 160.683 4.76V6.952H163.515V7.688H160.683V13.608L162.955 14.28L162.603 15H157.179V14.424L158.603 13.288V7.688H156.731V6.952H158.603V5.576C158.603 4.744 158.827 3.97067 159.275 3.256C159.734 2.53067 160.305 1.95467 160.987 1.528C161.681 1.09067 162.353 0.872 163.003 0.872ZM169.877 6.312C170.602 6.312 171.248 6.49867 171.813 6.872C172.389 7.23467 172.837 7.73067 173.157 8.36C173.477 8.98933 173.637 9.688 173.637 10.456C173.637 11.288 173.381 12.0667 172.869 12.792C172.368 13.5067 171.733 14.0827 170.965 14.52C170.197 14.9467 169.456 15.16 168.741 15.16C168.026 15.16 167.381 14.9787 166.805 14.616C166.24 14.2427 165.792 13.7413 165.461 13.112C165.141 12.4827 164.981 11.784 164.981 11.016C164.981 10.184 165.232 9.41067 165.733 8.696C166.245 7.97067 166.885 7.39467 167.653 6.968C168.421 6.53067 169.162 6.312 169.877 6.312ZM168.949 7.768C167.797 7.768 167.221 8.59467 167.221 10.248C167.221 11.24 167.429 12.0667 167.845 12.728C168.272 13.3893 168.88 13.72 169.669 13.72C170.234 13.72 170.661 13.5067 170.949 13.08C171.237 12.6533 171.381 12.0293 171.381 11.208C171.381 10.2267 171.168 9.41067 170.741 8.76C170.325 8.09867 169.728 7.768 168.949 7.768ZM180.914 15.032C180.647 15.1173 180.322 15.16 179.938 15.16C179.02 15.16 178.348 14.9307 177.922 14.472C177.506 14.0027 177.298 13.2827 177.298 12.312V7.688H175.57V7L178.69 3.416H179.378V6.952H182.258V7.688H179.378V12.44C179.378 13.2827 179.794 13.704 180.626 13.704C180.85 13.704 181.063 13.6613 181.266 13.576C181.468 13.48 181.73 13.3147 182.05 13.08L182.53 13.752L180.914 15.032ZM189.716 15.016C189.258 15.112 188.703 15.16 188.052 15.16C187.338 15.16 186.692 14.9787 186.116 14.616C185.551 14.2427 185.103 13.7413 184.772 13.112C184.452 12.4827 184.292 11.784 184.292 11.016C184.292 10.184 184.543 9.41067 185.044 8.696C185.556 7.97067 186.196 7.39467 186.964 6.968C187.732 6.53067 188.474 6.312 189.188 6.312C190.223 6.312 191.023 6.71733 191.588 7.528C192.164 8.33867 192.447 9.42133 192.436 10.776H186.548C186.623 11.6293 186.868 12.328 187.284 12.872C187.7 13.4053 188.266 13.672 188.98 13.672C189.684 13.672 190.687 13.1707 191.988 12.168L192.468 12.824L189.716 15.016ZM188.276 7.768C187.178 7.768 186.602 8.52533 186.548 10.04H190.148C190.052 9.496 189.951 9.07467 189.844 8.776C189.748 8.47733 189.578 8.23733 189.332 8.056C189.087 7.864 188.73 7.768 188.26 7.768H188.276ZM199.868 6.312C200.316 6.312 200.838 6.376 201.436 6.504C202.033 6.62133 202.465 6.75467 202.732 6.904V9.48H202.044C201.628 8.94667 201.153 8.53067 200.62 8.232C200.086 7.92267 199.532 7.768 198.956 7.768C198.486 7.768 198.129 7.98133 197.884 8.408C197.649 8.824 197.532 9.43733 197.532 10.248C197.532 11.2293 197.74 12.0453 198.156 12.696C198.582 13.3467 199.19 13.672 199.98 13.672C200.598 13.672 201.489 13.256 202.652 12.424L203.132 13.096L200.7 15.016C200.241 15.112 199.692 15.16 199.052 15.16C198.337 15.16 197.692 14.9787 197.116 14.616C196.55 14.2427 196.102 13.7413 195.772 13.112C195.452 12.4827 195.292 11.784 195.292 11.016C195.292 10.184 195.526 9.41067 195.996 8.696C196.476 7.97067 197.073 7.39467 197.788 6.968C198.502 6.53067 199.196 6.312 199.868 6.312ZM215.278 15.016H212.126V9.672C212.126 9.10667 212.036 8.712 211.854 8.488C211.673 8.25333 211.358 8.136 210.91 8.136C210.58 8.136 210.249 8.19467 209.918 8.312C209.588 8.42933 209.204 8.65333 208.766 8.984V13.768L210.206 14.296L209.838 15.016H205.262V14.44L206.686 13.304V3.672L205.262 2.68V2.104L208.078 1.032H208.766V8.12L210.878 6.44C211.124 6.35467 211.422 6.312 211.774 6.312C212.521 6.312 213.113 6.536 213.55 6.984C213.988 7.42133 214.206 8.01867 214.206 8.776V13.752L215.646 14.296L215.278 15.016Z" fill="#06387A"/>
<path d="M87.3475 12.408L87.7795 13.16L84.8355 14.968C84.3662 15.1067 83.9128 15.1973 83.4755 15.24C83.0488 15.2933 82.5902 15.32 82.0995 15.32C80.8942 15.32 79.8275 15.048 78.8995 14.504C77.9715 13.96 77.2515 13.2133 76.7395 12.264C76.2275 11.304 75.9715 10.216 75.9715 9C75.9715 7.752 76.3555 6.6 77.1235 5.544C77.8915 4.47733 78.8462 3.64 79.9875 3.032C81.1395 2.41333 82.2328 2.104 83.2675 2.104C83.8862 2.104 84.6062 2.184 85.4275 2.344C86.2595 2.504 86.8675 2.67467 87.2515 2.856V6.104H86.4675C85.4115 4.39733 84.0355 3.544 82.3395 3.544C81.5928 3.544 80.9102 3.74667 80.2915 4.152C79.6835 4.55733 79.2035 5.11733 78.8515 5.832C78.4995 6.54667 78.3235 7.34667 78.3235 8.232C78.3235 9.256 78.4942 10.1947 78.8355 11.048C79.1768 11.9013 79.6942 12.584 80.3875 13.096C81.0915 13.608 81.9608 13.864 82.9955 13.864C83.4328 13.864 83.8008 13.8533 84.0995 13.832C84.3982 13.8 84.7502 13.7147 85.1555 13.576V9.896L82.6595 9.224L83.0275 8.504H88.8515V9.08L87.3475 10.28V12.408ZM96.0518 8.12C95.8277 8.12 95.5931 8.17867 95.3477 8.296C95.1024 8.41333 94.8251 8.62667 94.5157 8.936V13.624L96.7878 14.296L96.4358 15.016H91.0117V14.44L92.4357 13.304V8.952L91.0117 8.104V7.528L93.8597 6.168L94.3877 8.104L96.0037 6.44C96.2491 6.35467 96.5371 6.312 96.8678 6.312C97.2624 6.312 97.6038 6.41333 97.8917 6.616C98.1904 6.81867 98.4144 7.10667 98.5638 7.48L97.4117 8.92H96.7238C96.6811 8.632 96.6064 8.42933 96.4998 8.312C96.3931 8.184 96.2437 8.12 96.0518 8.12ZM108.445 15H105.277V13.608L103.469 15.032C103.256 15.1173 102.989 15.16 102.669 15.16C101.73 15.16 101.053 14.9307 100.637 14.472C100.221 14.0027 100.013 13.4373 100.013 12.776C100.013 12.392 100.146 12.0133 100.413 11.64C100.68 11.256 101.069 10.8933 101.581 10.552H105.277V9.688C105.277 8.44 104.61 7.816 103.277 7.816C102.605 7.816 101.762 8.19467 100.749 8.952L100.269 8.28L102.557 6.472C103.048 6.36533 103.581 6.312 104.157 6.312C105.17 6.312 105.954 6.55733 106.509 7.048C107.074 7.53867 107.357 8.248 107.357 9.176V13.72L108.797 14.28L108.445 15ZM103.245 13.64C103.874 13.64 104.552 13.3573 105.277 12.792V11.288H102.493C102.365 11.448 102.274 11.608 102.221 11.768C102.168 11.928 102.141 12.104 102.141 12.296C102.141 12.6693 102.242 12.9893 102.445 13.256C102.648 13.512 102.914 13.64 103.245 13.64ZM115.451 6.312C115.899 6.312 116.422 6.376 117.019 6.504C117.617 6.62133 118.049 6.75467 118.315 6.904V9.48H117.627C117.211 8.94667 116.737 8.53067 116.203 8.232C115.67 7.92267 115.115 7.768 114.539 7.768C114.07 7.768 113.713 7.98133 113.467 8.408C113.233 8.824 113.115 9.43733 113.115 10.248C113.115 11.2293 113.323 12.0453 113.739 12.696C114.166 13.3467 114.774 13.672 115.563 13.672C116.182 13.672 117.073 13.256 118.235 12.424L118.715 13.096L116.283 15.016C115.825 15.112 115.275 15.16 114.635 15.16C113.921 15.16 113.275 14.9787 112.699 14.616C112.134 14.2427 111.686 13.7413 111.355 13.112C111.035 12.4827 110.875 11.784 110.875 11.016C110.875 10.184 111.11 9.41067 111.579 8.696C112.059 7.97067 112.657 7.39467 113.371 6.968C114.086 6.53067 114.779 6.312 115.451 6.312ZM126.83 15.016C126.371 15.112 125.817 15.16 125.166 15.16C124.451 15.16 123.806 14.9787 123.23 14.616C122.665 14.2427 122.217 13.7413 121.886 13.112C121.566 12.4827 121.406 11.784 121.406 11.016C121.406 10.184 121.657 9.41067 122.158 8.696C122.67 7.97067 123.31 7.39467 124.078 6.968C124.846 6.53067 125.587 6.312 126.302 6.312C127.337 6.312 128.137 6.71733 128.702 7.528C129.278 8.33867 129.561 9.42133 129.55 10.776H123.662C123.737 11.6293 123.982 12.328 124.398 12.872C124.814 13.4053 125.379 13.672 126.094 13.672C126.798 13.672 127.801 13.1707 129.102 12.168L129.582 12.824L126.83 15.016ZM125.39 7.768C124.291 7.768 123.715 8.52533 123.662 10.04H127.262C127.166 9.496 127.065 9.07467 126.958 8.776C126.862 8.47733 126.691 8.23733 126.446 8.056C126.201 7.864 125.843 7.768 125.374 7.768H125.39Z" fill="#800080"/>
</g>
<defs>
<filter id="filter0_d_337_814" x="0.529724" y="0.872009" width="219.117" height="22.448" filterUnits="userSpaceOnUse" color-interpolation-filters="sRGB">
<feFlood flood-opacity="0" result="BackgroundImageFix"/>
<feColorMatrix in="SourceAlpha" type="matrix" values="0 0 0 0 0 0 0 0 0 0 0 0 0 0 0 0 0 0 127 0" result="hardAlpha"/>
<feOffset dy="4"/>
<feGaussianBlur stdDeviation="2"/>
<feComposite in2="hardAlpha" operator="out"/>
<feColorMatrix type="matrix" values="0 0 0 0 0 0 0 0 0 0 0 0 0 0 0 0 0 0 0.25 0"/>
<feBlend mode="normal" in2="BackgroundImageFix" result="effect1_dropShadow_337_814"/>
<feBlend mode="normal" in="SourceGraphic" in2="effect1_dropShadow_337_814" result="shape"/>
</filter>
</defs>
</svg>
