<?xml version="1.0" encoding="UTF-8"?>
<svg xmlns="http://www.w3.org/2000/svg" viewBox="0 0 800 600">
  <defs>
    <linearGradient id="grad1" x1="0%" y1="0%" x2="100%" y2="100%">
      <stop offset="0%" style="stop-color:#4F46E5;stop-opacity:1" />
      <stop offset="100%" style="stop-color:#06B6D4;stop-opacity:1" />
    </linearGradient>
    <linearGradient id="grad2" x1="0%" y1="0%" x2="100%" y2="0%">
      <stop offset="0%" style="stop-color:#3B82F6;stop-opacity:0.2" />
      <stop offset="100%" style="stop-color:#8B5CF6;stop-opacity:0.2" />
    </linearGradient>
  </defs>
  
  <!-- Background -->
  <rect x="0" y="0" width="800" height="600" fill="#ffffff"/>
  <rect x="0" y="0" width="800" height="600" fill="url(#grad2)"/>
  
  <!-- Code Window -->
  <rect x="100" y="50" width="600" height="400" rx="10" fill="#1E293B" />
  <rect x="100" y="50" width="600" height="40" rx="10" fill="#334155" />
  
  <!-- Window Controls -->
  <circle cx="130" cy="70" r="6" fill="#EF4444"/>
  <circle cx="150" cy="70" r="6" fill="#FCD34D"/>
  <circle cx="170" cy="70" r="6" fill="#22C55E"/>
  
  <!-- Code Lines -->
  <rect x="120" y="120" width="200" height="12" rx="2" fill="url(#grad1)" opacity="0.7"/>
  <rect x="120" y="150" width="300" height="12" rx="2" fill="#64748B" opacity="0.5"/>
  <rect x="120" y="180" width="250" height="12" rx="2" fill="#64748B" opacity="0.5"/>
  <rect x="120" y="210" width="180" height="12" rx="2" fill="url(#grad1)" opacity="0.7"/>
  <rect x="120" y="240" width="280" height="12" rx="2" fill="#64748B" opacity="0.5"/>
  <rect x="120" y="270" width="220" height="12" rx="2" fill="#64748B" opacity="0.5"/>
  <rect x="120" y="300" width="260" height="12" rx="2" fill="url(#grad1)" opacity="0.7"/>
  
  <!-- Decorative Elements -->
  <circle cx="50" cy="150" r="100" fill="url(#grad1)" opacity="0.1"/>
  <circle cx="750" cy="450" r="120" fill="url(#grad1)" opacity="0.1"/>
</svg>
